<svg xmlns="http://www.w3.org/2000/svg" xmlns:lucid="lucid" width="441" height="246.32"><g lucid:page-tab-id="0_0"><path d="M-299.5-299h1000V701h-1000z" fill="#fff"/><path d="M180.5 61V41.56s5.94-17.04 29.1-17.04c23.22 0 30.9 17.04 30.9 17.04V61" stroke="#000" stroke-width="2" fill="#fff"/><path d="M180.5 47.44a6 6 0 0 1 6-6h48a6 6 0 0 1 6 6V115a6 6 0 0 1-6 6h-48a6 6 0 0 1-6-6z" stroke="#000" stroke-width="2" fill="#fff"/><path d="M206.78 4.75A3.75 3.75 0 0 1 210.53 1a3.75 3.75 0 0 1 3.75 3.75v6.42a3.75 3.75 0 0 1-3.75 3.75 3.75 3.75 0 0 1-3.75-3.75zM210.5 14.92v88.92c-7.5 9.36-15 9.36-22.5 0 7.5-9.36 15-9.36 22.5 0 7.5-9.36 15-9.36 22.5 0-7.5 9.36-15 9.36-22.5 0" stroke="#000" stroke-width="2" fill="#ccc"/><path d="M1 61h162.12M1 61H.5" stroke="#3a414a" fill="none"/><path d="M177.88 61l-14.26 4.63v-9.26z" stroke="#3a414a" fill="#3a414a"/><path d="M210.5 122.5V235a6 6 0 0 0 6 6h207.62" stroke="#3a414a" fill="none"/><path d="M210.98 122.5h-.96v-.5h.96z" stroke="#3a414a" stroke-width=".05" fill="#3a414a"/><path d="M438.88 241l-14.26 4.63v-9.26z" stroke="#3a414a" fill="#3a414a"/></g></svg>